<?xml version="1.0" standalone="no"?>
<svg xmlns:xlink="http://www.w3.org/1999/xlink" id="wave" style="transform:rotate(180deg); transition: 0.3s" viewBox="0 0 1440 150" version="1.1" xmlns="http://www.w3.org/2000/svg"><defs><linearGradient id="sw-gradient-0" x1="0" x2="0" y1="1" y2="0"><stop stop-color="rgba(0, 127, 115, 1)" offset="0%"/><stop stop-color="rgba(21, 245, 186, 1)" offset="100%"/></linearGradient></defs><path style="transform:translate(0, 0px); opacity:1" fill="url(#sw-gradient-0)" d="M0,60L480,135L960,120L1440,105L1920,135L2400,0L2880,105L3360,60L3840,30L4320,60L4800,105L5280,120L5760,30L6240,105L6720,45L7200,135L7680,45L8160,120L8640,30L9120,15L9600,60L10080,135L10560,75L11040,120L11520,15L11520,150L11040,150L10560,150L10080,150L9600,150L9120,150L8640,150L8160,150L7680,150L7200,150L6720,150L6240,150L5760,150L5280,150L4800,150L4320,150L3840,150L3360,150L2880,150L2400,150L1920,150L1440,150L960,150L480,150L0,150Z"/></svg>